<svg width="200" height="200" viewBox="0 0 200 200" xmlns="http://www.w3.org/2000/svg">
  <!-- Ghost Body with Eyes and Badge cut out -->
  <path fill-rule="evenodd" clip-rule="evenodd" 
    d="M100 20C60 20 30 50 30 90V160C30 170 40 180 50 170L70 150L100 180L130 150L150 170C160 180 170 170 170 160V90C170 50 140 20 100 20Z
       M60 80 A 10 10 0 1 0 80 80 A 10 10 0 1 0 60 80
       M120 80 A 10 10 0 1 0 140 80 A 10 10 0 1 0 120 80
       M100 110 L110 120 L100 130 L90 120 Z" 
    fill="currentColor"/>
</svg>
